<?xml version="1.0" encoding="UTF-8" standalone="no"?>
<svg xmlns:dc="http://purl.org/dc/elements/1.1/" xmlns:cc="http://creativecommons.org/ns#" xmlns:rdf="http://www.w3.org/1999/02/22-rdf-syntax-ns#" xmlns:svg="http://www.w3.org/2000/svg" xmlns="http://www.w3.org/2000/svg" id="svg6" version="1.1" viewBox="-1 0 75 17">
  <path d="m 60.437,5.371 c 0,-0.826 0.519,-1.377 1.24,-1.377 0.636,0 1.048,0.345 1.134,0.929 0.606,-0.654 1.396,-1.033 2.306,-1.033 1.035,0 1.913,0.431 2.565,1.257 0.688,-0.791 1.771,-1.257 2.616,-1.257 2.012,0 3.388,1.171 3.388,3.338 v 4.75 c 0,0.825 -0.516,1.375 -1.239,1.375 -0.723,0 -1.239,-0.55 -1.239,-1.375 v -4.32 c 0,-0.998 -0.55,-1.704 -1.444,-1.704 -0.913,0 -1.463,0.706 -1.463,1.704 v 4.319 c 0,0.825 -0.515,1.375 -1.237,1.375 -0.724,0 -1.24,-0.55 -1.24,-1.375 V 7.658 c 0,-0.998 -0.55,-1.704 -1.445,-1.704 -1.015,0 -1.462,0.706 -1.462,1.704 v 4.319 c 0,0.825 -0.517,1.375 -1.24,1.375 -0.721,0 -1.24,-0.55 -1.24,-1.375 z M 9.586,1.377 C 9.586,0.553 10.101,0 10.824,0 c 0.723,0 1.24,0.553 1.24,1.377 v 10.6 c 0,0.825 -0.518,1.375 -1.24,1.375 -0.722,0 -1.238,-0.55 -1.238,-1.375 z m 32.317,9.394 c 0.739,0 1.343,0.604 1.343,1.345 0,0.738 -0.604,1.341 -1.343,1.341 a 1.345,1.345 0 0 1 -1.342,-1.341 c 0,-0.741 0.603,-1.345 1.342,-1.345 z m 8.556,-4.128 c -0.622,0 -1.171,-0.481 -1.963,-0.481 -1.409,0 -2.081,1.255 -2.081,2.529 0,1.221 0.74,2.495 2.081,2.495 0.62,0 1.549,-0.516 1.841,-0.516 0.585,0 1.067,0.498 1.067,1.082 0,1.276 -2.133,1.705 -3.028,1.705 -2.668,0 -4.439,-2.186 -4.439,-4.767 0,-2.512 1.823,-4.801 4.439,-4.801 0.98,0 3.028,0.362 3.028,1.567 0,0.516 -0.361,1.187 -0.945,1.187 z M 4.078125,3.8886719 C 1.584125,3.8886719 0,6.2130312 0,8.7070312 c 0,2.4599998 1.2213594,4.7489998 3.8183594,4.7499998 1.137,0 1.9800937,-0.412922 2.4960937,-1.169922 h 0.037109 v 0.583985 c 0,1.259 -0.8956094,1.96289 -2.0996094,1.96289 -1.428,0 -2.3066562,-0.77539 -3.0976562,-0.77539 -0.481,0 -0.9980469,0.620937 -0.9980469,1.085937 0,1.358 2.8892969,1.855469 3.9042969,1.855469 2.823,0 4.765625,-1.496609 4.765625,-4.474609 h -0.00195 V 5.3691406 c 0,-0.826 -0.5133282,-1.3769531 -1.2363282,-1.3769531 -0.689,0 -1.0852812,0.3792031 -1.2382812,1.0332031 -0.466,-0.758 -1.4294844,-1.1367187 -2.2714844,-1.1367187 z m 0.3261719,2.2714843 c 1.359,0 1.9453125,1.3770313 1.9453125,2.5820313 0,1.205 -0.6213125,2.4433595 -1.9453125,2.4433595 -1.29,0 -1.9257813,-1.204297 -1.9257813,-2.529297 0,-1.153 0.6357813,-2.4960938 1.9257813,-2.4960938 z M 16.994141,3.8886719 c -2.615,0 -4.4375,2.2887812 -4.4375,4.8007812 0,2.5809999 1.7715,4.7675779 4.4375,4.7675779 2.667,0 4.439453,-2.186578 4.439453,-4.7675779 0,-2.512 -1.824453,-4.8007812 -4.439453,-4.8007812 z m 0,2.2714843 c 1.359,0 1.960937,1.3422969 1.960937,2.5292969 0,1.187 -0.618937,2.4960939 -1.960937,2.4960939 -1.342,0 -1.960938,-1.3080939 -1.960938,-2.4960939 0,-1.187 0.600938,-2.5292969 1.960938,-2.5292969 z M 23.146484,0 c -0.723,0 -1.240234,0.55295313 -1.240234,1.3769531 h 0.002 V 11.976562 c 0,0.825 0.515281,1.375 1.238281,1.375 0.688,1e-6 1.084282,-0.37725 1.238282,-1.03125 0.465,0.757 1.428531,1.136719 2.269531,1.136719 2.494,0 4.078125,-2.323062 4.078125,-4.6640622 0,-2.406 -1.325188,-4.9042969 -3.992188,-4.9042969 A 3.597,3.597 0 0 0 24.382812,4.75 V 1.3769531 C 24.382813,0.55295312 23.869484,0 23.146484,0 Z m 3.179688,6.1621094 c 1.291,0 1.929687,1.3592969 1.929687,2.5292968 0,1.154 -0.638687,2.4941408 -1.929687,2.4941408 -1.359,0 -1.94336,-1.3770783 -1.94336,-2.5800782 10e-7,-1.2050001 0.61936,-2.4433594 1.94336,-2.4433594 z m 9.103516,-2.2734375 c -2.615,0 -4.439454,2.2887812 -4.439454,4.8007812 0,2.5809999 1.773454,4.7675779 4.439454,4.7675779 2.667999,0 4.439453,-2.186578 4.439453,-4.7675779 0,-2.512 -1.824453,-4.8007812 -4.439453,-4.8007812 z m 0,2.2714843 c 1.359,0 1.960937,1.3422969 1.960937,2.5292969 0,1.187 -0.617937,2.4960939 -1.960937,2.4960939 -1.342,0 -1.960938,-1.3080939 -1.960938,-2.4960939 0,-1.187 0.600938,-2.5292969 1.960938,-2.5292969 z M 55.525391,3.8886719 c -2.614,0 -4.4375,2.2887812 -4.4375,4.8007812 0,2.5809999 1.7715,4.7675779 4.4375,4.7675779 2.668,0 4.441406,-2.186578 4.441406,-4.7675779 0,-2.512 -1.825406,-4.8007812 -4.441406,-4.8007812 z m -0.002,2.2714843 c 1.359999,0 1.960937,1.3422969 1.960937,2.5292969 0,1.187 -0.617937,2.4960939 -1.960937,2.4960939 -1.340001,0 -1.958985,-1.3080939 -1.958985,-2.4960939 0,-1.187 0.600985,-2.5292969 1.958985,-2.5292969 z" style="fill:#0669de;fill-opacity:1" id="path2"/>
</svg>